<svg width="122" height="23" viewBox="0 0 122 23" fill="none" xmlns="http://www.w3.org/2000/svg">
<g clip-path="url(#clip0_54_9474)">
<path d="M12.8514 6.42871C12.8493 5.63565 12.5476 4.87303 12.0074 4.29518C11.5045 3.76011 10.8923 3.34095 10.2129 3.06654C9.53348 2.79213 8.80303 2.66899 8.07178 2.70557C7.12261 2.70191 6.18722 2.93385 5.34855 3.3808C3.98071 4.10292 3.29679 5.11889 3.29679 6.42871C3.30162 6.6741 3.35887 6.91558 3.46466 7.13677C3.84704 7.88077 5.11384 8.66228 7.26507 9.48131C9.93235 10.541 11.5364 11.1944 12.0774 11.4414C14.7882 12.8199 16.1436 14.5236 16.1436 16.5525C16.117 17.3049 15.9431 18.0446 15.6318 18.7293C15.3205 19.4141 14.878 20.0303 14.3296 20.5429C13.504 21.3525 12.5239 21.9855 11.4484 22.4037C10.3729 22.822 9.22423 23.0168 8.07178 22.9765C6.01976 23.0214 4.01413 22.3596 2.38749 21.1009C0.795831 19.8505 0 18.3421 0 16.5759H2.69059C2.70775 16.9885 2.806 17.3937 2.97967 17.7679C3.15335 18.1421 3.39901 18.4781 3.70248 18.7563C4.89868 19.8328 6.46844 20.3921 8.07178 20.3131C9.18158 20.3214 10.2776 20.0659 11.2706 19.5676C12.7255 18.8267 13.453 17.8326 13.453 16.5947C13.4503 16.333 13.3813 16.0764 13.2525 15.8491C12.8701 15.0848 11.5924 14.2689 9.41941 13.4155C6.77078 12.362 5.18534 11.7118 4.66307 11.4648C1.95849 10.1143 0.6062 8.43565 0.6062 6.42871C0.614452 4.93819 1.19208 3.50788 2.21962 2.43361C2.9624 1.627 3.87015 0.991782 4.8804 0.571667C5.89064 0.151552 6.97941 -0.0434878 8.07178 -3.30294e-05C9.89727 -0.036912 11.6795 0.561018 13.1172 1.69273C13.8669 2.23129 14.4779 2.94192 14.8996 3.76561C15.3214 4.58929 15.5416 5.50227 15.542 6.42871H12.8514Z" fill="#221F20"/>
<path d="M21.2916 23H18.3679L19.1746 21.1244L27.9178 0.811213L28.2909 0H30.0395L30.4079 0.811213L39.1698 21.1009L39.9765 22.9766H37.0341L36.6658 22.1653L29.1629 4.76881L21.6647 22.1888L21.2916 23Z" fill="#221F20"/>
<path d="M40.8019 0H43.7303L44.0987 0.811213L51.6342 18.2312L59.0951 0.811213L59.4682 0H62.3919L61.5852 1.87564L52.8792 22.1888L52.5062 23H50.7575L50.3892 22.1888L41.6086 1.87564L40.8019 0Z" fill="#221F20"/>
<path d="M63.2406 0H66.1643L66.5327 0.811213L74.0683 18.2312L81.5292 0.811213L81.9069 0H84.8353L84.0286 1.87564L75.3133 22.1888L74.9449 23H73.2103L72.8372 22.1888L64.0473 1.87564L63.2406 0Z" fill="#221F20"/>
<path d="M89.0647 0H91.76V20.2944H102.522V23H89.0647V0Z" fill="#221F20"/>
<path d="M114.6 21.6495V23H111.914V11.9384L105.661 2.09134L104.341 0H107.54L107.941 0.609582L113.257 8.96555L118.442 0.642406L118.838 0H122L120.722 2.0632L114.6 11.8728V21.6495Z" fill="#221F20"/>
</g>
<defs>
<clipPath id="clip0_54_9474">
<rect width="122" height="23" fill="white"/>
</clipPath>
</defs>
</svg>
