<svg width="91" height="94" viewBox="0 0 91 94" fill="none" xmlns="http://www.w3.org/2000/svg">
<path d="M25.1341 43.4597H33.0393C33.8011 43.4597 34.4193 42.8428 34.4193 42.0828C34.4193 41.3227 33.8011 40.7058 33.0393 40.7058H25.1341C24.3723 40.7058 23.754 41.3227 23.754 42.0828C23.754 42.8428 24.3723 43.4597 25.1341 43.4597Z" fill="#F2E177"/>
<path d="M25.1341 50.1335H57.2386C58.0004 50.1335 58.6187 49.5167 58.6187 48.7566C58.6187 47.9965 58.0004 47.3796 57.2386 47.3796H25.1341C24.3723 47.3796 23.754 47.9965 23.754 48.7566C23.754 49.5167 24.3723 50.1335 25.1341 50.1335Z" fill="#F2E177"/>
<path d="M57.2386 54.0532H48.6802C47.9184 54.0532 47.3001 54.6701 47.3001 55.4302C47.3001 56.1903 47.9184 56.8071 48.6802 56.8071H57.2386C58.0004 56.8071 58.6187 56.1903 58.6187 55.4302C58.6187 54.6701 58.0004 54.0532 57.2386 54.0532Z" fill="#F2E177"/>
<path d="M88.2206 9.24349L70.3568 0.337354C69.4551 -0.112451 68.3786 -0.112451 67.477 0.337354L49.6132 9.24532C48.5146 9.79243 47.8319 10.894 47.8319 12.1186V14.6815H28.439C27.6772 14.6815 27.0589 15.2984 27.0589 16.0585C27.0589 16.8186 27.6772 17.4354 28.439 17.4354H47.8319V21.6232C47.8319 23.6317 47.9828 25.5411 48.2846 27.3605H25.1341C24.3723 27.3605 23.754 27.9774 23.754 28.7375C23.754 29.4975 24.3723 30.1144 25.1341 30.1144H48.8753C49.2378 31.473 49.6941 32.7784 50.2462 34.0341H25.1341C24.3723 34.0341 23.754 34.651 23.754 35.4111C23.754 36.1712 24.3723 36.7881 25.1341 36.7881H51.6594C52.1433 37.6106 52.6751 38.4092 53.2529 39.1876C53.6338 39.6999 54.0368 40.2066 54.4619 40.7078H38.5596C37.7978 40.7078 37.1795 41.3247 37.1795 42.0847C37.1795 42.8448 37.7978 43.4617 38.5596 43.4617H57.0951C59.697 45.9053 62.9853 48.3104 67.2323 50.9027C67.7512 51.2204 68.3345 51.3783 68.916 51.3783C69.4974 51.3783 70.0808 51.2204 70.5997 50.9027C70.7414 50.8165 70.8794 50.7302 71.0174 50.6457V84.0836H34.9106V81.517C34.9106 80.7569 34.2924 80.1401 33.5306 80.1401C32.7688 80.1401 32.1505 80.7569 32.1505 81.517V90.7885C32.1505 91.0418 31.9444 91.2475 31.6904 91.2475H3.2202C2.96626 91.2475 2.76017 91.0418 2.76017 90.7885V70.9549C2.76017 70.7015 2.96626 70.4959 3.2202 70.4959H31.6904C31.9444 70.4959 32.1505 70.7015 32.1505 70.9549V75.0912C32.1505 75.8513 32.7688 76.4682 33.5306 76.4682C34.2924 76.4682 34.9106 75.8513 34.9106 75.0912V70.9549C34.9106 70.6776 34.872 70.4114 34.8058 70.1544H57.2404C58.0022 70.1544 58.6205 69.5375 58.6205 68.7774C58.6205 68.0173 58.0022 67.4005 57.2404 67.4005H30.476V63.4808H57.2386C58.0004 63.4808 58.6187 62.8639 58.6187 62.1038C58.6187 61.3437 58.0004 60.7268 57.2386 60.7268H30.4189C30.292 59.3462 29.9479 58.0299 29.4197 56.8071H43.7119C44.4737 56.8071 45.092 56.1902 45.092 55.4302C45.092 54.6701 44.4737 54.0532 43.7119 54.0532H27.8004C25.4193 50.9468 21.6692 48.9365 17.4553 48.9365C15.2527 48.9365 13.1752 49.4872 11.3553 50.4548V17.4336H22.0004C22.7622 17.4336 23.3805 16.8167 23.3805 16.0567C23.3805 15.2966 22.7622 14.6797 22.0004 14.6797H10.8935C9.62564 14.6797 8.59333 15.7097 8.59333 16.9746V52.4192C6.03742 54.7931 4.43468 58.1749 4.43468 61.9257V67.7383H3.2202C1.44449 67.7383 0 69.1795 0 70.9512V90.7848C0 92.5565 1.44449 93.9977 3.2202 93.9977H31.6904C33.4662 93.9977 34.9106 92.5565 34.9106 90.7848V86.8339H71.4792C72.7471 86.8339 73.7794 85.8039 73.7794 84.539V48.8722C78.6925 45.5914 82.093 42.5309 84.5808 39.184C88.228 34.2765 90.0018 28.53 90.0018 21.6195V12.1149C90.0018 10.8903 89.3191 9.78876 88.2206 9.24165V9.24349ZM22.1955 67.7401H12.7152V61.9275C12.7152 59.3205 14.8424 57.1982 17.4553 57.1982C20.0683 57.1982 22.1955 59.3205 22.1955 61.9275V67.7401ZM7.19485 61.9275C7.19485 56.282 11.797 51.6904 17.4553 51.6904C23.1137 51.6904 27.7158 56.282 27.7158 61.9275V67.7401H24.9556V61.9275C24.9556 57.8004 21.5901 54.4443 17.4553 54.4443C13.3206 54.4443 9.95502 57.8022 9.95502 61.9275V67.7401H7.19485V61.9275ZM87.2398 21.6214C87.2398 34.8548 80.321 41.7359 69.1589 48.5509C69.0098 48.6409 68.8203 48.6409 68.6712 48.5509C57.5091 41.7359 50.5903 34.853 50.5903 21.6214V12.1167C50.5903 11.9423 50.6878 11.7844 50.8442 11.7055L68.7117 2.79935C68.8405 2.73509 68.9932 2.73509 69.1221 2.79935L86.9859 11.7073C87.1423 11.7863 87.2398 11.9423 87.2398 12.1186V21.6232V21.6214Z" fill="#F2E177"/>
<path d="M68.8332 9.5702C61.1323 9.5702 54.8667 15.8216 54.8667 23.505C54.8667 31.1884 61.1323 37.4397 68.8332 37.4397C74.7252 37.4397 80.0119 33.7201 81.99 28.1829C82.2458 27.4669 81.8722 26.6793 81.1527 26.4241C80.4333 26.1689 79.6457 26.5434 79.3899 27.2595C77.8037 31.7006 73.5604 34.6858 68.8332 34.6858C62.6541 34.6858 57.6269 29.67 57.6269 23.505C57.6269 17.3399 62.6541 12.3241 68.8332 12.3241C74.2726 12.3241 78.9115 16.1979 79.861 21.535C79.9953 22.2841 80.7111 22.7834 81.4619 22.6494C82.2127 22.5172 82.7132 21.8012 82.5788 21.0521C81.3938 14.3987 75.6122 9.56836 68.8332 9.56836V9.5702Z" fill="#F2E177"/>
<path d="M73.6211 19.7358L68.1836 25.161L65.0223 22.0069C64.4831 21.469 63.6091 21.469 63.0699 22.0069C62.5308 22.5448 62.5308 23.4169 63.0699 23.9548L67.2083 28.0838C67.4678 28.3427 67.8174 28.4877 68.1836 28.4877C68.5498 28.4877 68.9012 28.3427 69.1589 28.0838L75.5717 21.6856C76.1108 21.1477 76.1108 20.2756 75.5717 19.7377C75.0325 19.1997 74.1585 19.1997 73.6193 19.7377L73.6211 19.7358Z" fill="#F2E177"/>
</svg>
