<svg width="95" height="93" viewBox="0 0 95 93" fill="none" xmlns="http://www.w3.org/2000/svg">
<g clip-path="url(#clip0_402_4)">
<path d="M89.2295 87.4698V43.213H72.5303V87.4698H66.9639V54.2772H50.2646V87.4698H44.7168V65.3414H28.0176V87.4698H22.4512V76.4056H5.75195V87.4698H0V93.0019H94.9814V87.4698H89.2295Z" fill="#F2E177"/>
<path d="M15.5859 54.5704C24.6777 54.5704 38.1744 53.4437 50.7805 48.0831C63.0525 42.8627 71.5803 33.2092 76.8665 25.3315L84.6094 28.9218L80.1562 0L55.0035 15.1985L61.6943 18.302C56.2253 26.8796 48.8593 34.1041 40.157 39.4255C31.4547 44.747 21.6455 48.0252 11.4761 49.0107L11.7191 54.5298L15.5859 54.5704Z" fill="#F2E177"/>
</g>
<defs>
<clipPath id="clip0_402_4">
<rect width="95" height="93" fill="white"/>
</clipPath>
</defs>
</svg>
