<svg width="21" height="21" viewBox="0 0 21 21" fill="none" xmlns="http://www.w3.org/2000/svg">
<path d="M8.60034 17.2145C10.371 17.2145 12.0067 16.6744 13.3727 15.7631L18.3137 20.708C18.7015 21.0962 19.3423 21.0962 19.747 20.708L20.7083 19.746C21.0961 19.3579 21.0961 18.7165 20.7083 18.3115L15.7504 13.3834C16.661 12.0164 17.2007 10.3793 17.2007 8.60725C17.2007 3.86482 13.339 0 8.60034 0C3.86172 0 0 3.86482 0 8.60725C0 13.3497 3.84486 17.2145 8.60034 17.2145ZM8.60034 3.37539C11.484 3.37539 13.828 5.72129 13.828 8.60725C13.828 11.4932 11.484 13.8391 8.60034 13.8391C5.71669 13.8391 3.37268 11.4932 3.37268 8.60725C3.37268 5.72129 5.71669 3.37539 8.60034 3.37539Z" fill="black"/>
</svg>
