<svg width="89" height="89" viewBox="0 0 89 89" fill="none" xmlns="http://www.w3.org/2000/svg">
<g clip-path="url(#clip0_271_3830)">
<path d="M13.4786 41.948C14.7111 26.8342 26.7834 14.7435 41.8891 13.4814V0C30.9657 0.627569 20.7829 5.17701 12.9815 12.979C5.16617 20.7932 0.613613 30.9995 0 41.948H13.4786Z" fill="#F2E177"/>
<path d="M41.889 75.5185C26.825 74.2616 14.7753 62.2283 13.4889 47.1719H0.00683594C0.646524 58.0735 5.19561 68.2345 12.9814 76.0209C20.781 83.8212 30.9639 88.3724 41.889 88.9999V75.5185Z" fill="#F2E177"/>
<path d="M75.5109 47.172C74.2246 62.2302 62.1766 74.2617 47.1109 75.5186V89C58.0343 88.3725 68.2171 83.823 76.0185 76.021C83.8199 68.219 88.3516 58.0736 88.993 47.172H75.5109Z" fill="#F2E177"/>
<path d="M47.1126 13.4814C62.2166 14.7418 74.2907 26.8342 75.5231 41.948H89.0017C88.3881 31.0012 83.8356 20.7949 76.0203 12.979C68.2188 5.17701 58.036 0.627569 47.1109 0V13.4814H47.1126Z" fill="#F2E177"/>
<path d="M47.1128 61.3713L60.4159 53.6893V38.3425L47.1128 46.0072V61.3713Z" fill="#F2E177"/>
<path d="M28.5845 38.4346V53.6892L41.8875 61.3712V46.0228L28.5845 38.4346Z" fill="#F2E177"/>
<path d="M57.8169 33.8104L44.4999 26.1213L31.1064 33.8538L44.4999 41.4802L57.8169 33.8104Z" fill="#F2E177"/>
</g>
<defs>
<clipPath id="clip0_271_3830">
<rect width="89" height="89" fill="white"/>
</clipPath>
</defs>
</svg>
