<svg width="91" height="91" viewBox="0 0 91 91" fill="none" xmlns="http://www.w3.org/2000/svg">
<g clip-path="url(#clip0_271_3818)">
<path d="M86.0622 53.6438C85.0847 53.2386 84.0555 53.0342 83.0033 53.0342C80.6838 53.0342 78.5402 54.0241 77.0525 55.6842L75.3178 54.9661L70.3695 52.9169C71.0715 50.5654 71.4501 48.0771 71.4501 45.5018C71.4501 42.9264 71.0715 40.4381 70.3695 38.0867L75.3178 36.0374L77.0525 35.3194C78.5402 36.9794 80.6838 37.9694 83.0033 37.9694C84.0555 37.9694 85.0847 37.765 86.0622 37.3598C90.1361 35.6713 92.0788 30.9844 90.3903 26.909C89.1478 23.9088 86.2453 21.9697 82.998 21.9697C81.9458 21.9697 80.9166 22.1741 79.9391 22.5794C76.7273 23.9088 74.8432 27.1027 75.0138 30.3908L73.2684 31.1142L68.3219 33.1635C65.9188 28.7361 62.2645 25.0837 57.8369 22.6789L59.8863 17.7326L60.6079 15.989C60.7483 15.9961 60.8887 16.0014 61.0292 16.0014C64.2765 16.0014 67.1772 14.0623 68.4214 11.0622C70.1082 6.98852 68.1673 2.29988 64.0934 0.611406C63.1158 0.206172 62.0867 0.00177734 61.0345 0.00177734C57.7872 0.00177734 54.8864 1.94086 53.6422 4.94102C52.3127 8.15268 53.237 11.7429 55.6827 13.9468L54.9629 15.6851L52.9135 20.6332C50.562 19.9311 48.0736 19.5526 45.4981 19.5526C42.9227 19.5526 40.4343 19.9311 38.0828 20.6332L36.0334 15.6851L35.3135 13.9468C37.7593 11.7429 38.6853 8.15268 37.354 4.94102C36.1134 1.93908 33.2109 0 29.9635 0C28.9113 0 27.8822 0.204395 26.9046 0.609629C22.8308 2.29811 20.8881 6.98496 22.5766 11.0604C23.819 14.0606 26.7215 15.9996 29.9689 15.9996C30.1093 15.9996 30.2497 15.9961 30.3901 15.9872L31.1117 17.7308L33.1611 22.6771C28.7336 25.0801 25.081 28.7343 22.6761 33.1617L17.7296 31.1124L15.9842 30.389C16.1548 27.1009 14.2708 23.9071 11.059 22.5776C10.0814 22.1724 9.05227 21.968 8.00004 21.968C4.7527 21.968 1.85197 23.9071 0.607777 26.9072C-1.07899 30.9809 0.861947 35.6695 4.93578 37.358C5.91336 37.7632 6.94248 37.9676 7.99471 37.9676C10.3142 37.9676 12.4578 36.9776 13.9473 35.3176L15.682 36.0356L20.6303 38.0849C19.9283 40.4363 19.5497 42.9246 19.5497 45.5C19.5497 48.0754 19.9283 50.5637 20.6303 52.9151L15.682 54.9644L13.9473 55.6824C12.4596 54.0224 10.316 53.0324 7.99471 53.0324C6.94248 53.0324 5.91336 53.2368 4.93578 53.642C0.861947 55.3305 -1.08077 60.0173 0.607777 64.0928C1.85019 67.0929 4.7527 69.032 8.00004 69.032C9.05227 69.032 10.0814 68.8276 11.059 68.4224C14.2708 67.0929 16.1548 63.8991 15.9842 60.611L17.7296 59.8876L22.6761 57.8383C25.0792 62.2657 28.7336 65.9181 33.1611 68.3211L31.1117 73.2674L30.3901 75.011C30.2497 75.0039 30.1093 74.9986 29.9689 74.9986C26.7215 74.9986 23.8208 76.9377 22.5766 79.9378C20.8881 84.0115 22.8308 88.7001 26.9046 90.3886C27.8822 90.7938 28.9113 90.9982 29.9635 90.9982C33.2109 90.9982 36.1116 89.0591 37.3558 86.059C38.6853 82.8473 37.761 79.2571 35.3153 77.0532L36.0352 75.3149L38.0845 70.3668C40.4361 71.0689 42.9244 71.4474 45.4999 71.4474C48.0754 71.4474 50.5638 71.0689 52.9153 70.3668L54.9646 75.3149L55.6845 77.0532C53.2388 79.2571 52.3127 82.8491 53.644 86.059C54.8864 89.0591 57.7889 90.9982 61.0363 90.9982C62.0885 90.9982 63.1176 90.7938 64.0952 90.3886C68.169 88.7001 70.1117 84.0133 68.4232 79.9378C67.1808 76.9377 64.2783 74.9986 61.0309 74.9986C60.8905 74.9986 60.7501 75.0021 60.6097 75.011L59.8881 73.2674L57.8387 68.3211C62.2662 65.9181 65.9188 62.2639 68.3219 57.8383L73.2684 59.8876L75.0138 60.611C74.8432 63.8991 76.7273 67.0929 79.9391 68.4224C80.9166 68.8276 81.9458 69.032 82.998 69.032C86.2453 69.032 89.1461 67.0929 90.3903 64.0928C92.0788 60.0173 90.1361 55.3305 86.0622 53.642V53.6438ZM45.4999 66.1172C34.1316 66.1172 24.8819 56.8679 24.8819 45.5C24.8819 34.1321 34.1316 24.8828 45.4999 24.8828C56.8682 24.8828 66.1179 34.1321 66.1179 45.5C66.1179 56.8679 56.8682 66.1172 45.4999 66.1172Z" fill="#F2E177"/>
<path d="M45.5001 30.2148C37.0716 30.2148 30.2144 37.0718 30.2144 45.5C30.2144 53.9282 37.0716 60.7852 45.5001 60.7852C53.9286 60.7852 60.7859 53.9282 60.7859 45.5C60.7859 37.0718 53.9286 30.2148 45.5001 30.2148ZM48.1662 51.3652H42.834V39.6348H48.1662V51.3652Z" fill="#F2E177"/>
</g>
<defs>
<clipPath id="clip0_271_3818">
<rect width="91" height="91" fill="white"/>
</clipPath>
</defs>
</svg>
