<svg width="122" height="23" viewBox="0 0 122 23" fill="none" xmlns="http://www.w3.org/2000/svg">
<g clip-path="url(#clip0_38_800)">
<path d="M12.8514 6.42884C12.8493 5.63577 12.5476 4.87315 12.0074 4.2953C11.5045 3.76023 10.8923 3.34108 10.2129 3.06667C9.53348 2.79226 8.80303 2.66911 8.07178 2.7057C7.12261 2.70204 6.18722 2.93397 5.34855 3.38093C3.98071 4.10305 3.29679 5.11902 3.29679 6.42884C3.30162 6.67423 3.35887 6.91571 3.46466 7.13689C3.84704 7.88089 5.11384 8.66241 7.26507 9.48143C9.93235 10.5412 11.5364 11.1945 12.0774 11.4415C14.7882 12.8201 16.1436 14.5238 16.1436 16.5526C16.117 17.305 15.9431 18.0447 15.6318 18.7295C15.3205 19.4142 14.878 20.0305 14.3296 20.543C13.504 21.3526 12.5239 21.9856 11.4484 22.4039C10.3729 22.8221 9.22423 23.017 8.07178 22.9766C6.01976 23.0215 4.01413 22.3597 2.38749 21.101C0.795831 19.8506 0 18.3423 0 16.576H2.69059C2.70775 16.9887 2.806 17.3938 2.97967 17.768C3.15335 18.1423 3.39901 18.4782 3.70248 18.7565C4.89868 19.8329 6.46844 20.3922 8.07178 20.3132C9.18158 20.3215 10.2776 20.0661 11.2706 19.5677C12.7255 18.8268 13.453 17.8327 13.453 16.5948C13.4503 16.3332 13.3813 16.0765 13.2525 15.8492C12.8701 15.0849 11.5924 14.269 9.41941 13.4156C6.77078 12.3621 5.18534 11.7119 4.66307 11.4649C1.95849 10.1145 0.6062 8.43577 0.6062 6.42884C0.614452 4.93832 1.19208 3.508 2.21962 2.43373C2.9624 1.62712 3.87015 0.991904 4.8804 0.571789C5.89064 0.151674 6.97941 -0.0433657 8.07178 8.9041e-05C9.89727 -0.0367899 11.6795 0.56114 13.1172 1.69285C13.8669 2.23141 14.4779 2.94204 14.8996 3.76573C15.3214 4.58942 15.5416 5.50239 15.542 6.42884H12.8514Z" fill="white"/>
<path d="M21.2916 23H18.3678L19.1746 21.1244L27.9178 0.811213L28.2909 0H30.0395L30.4079 0.811213L39.1698 21.1009L39.9765 22.9766H37.0341L36.6657 22.1653L29.1629 4.76881L21.6646 22.1888L21.2916 23Z" fill="white"/>
<path d="M40.8019 0H43.7303L44.0987 0.811213L51.6342 18.2312L59.0951 0.811213L59.4682 0H62.3919L61.5852 1.87564L52.8793 22.1888L52.5062 23H50.7576L50.3892 22.1888L41.6086 1.87564L40.8019 0Z" fill="white"/>
<path d="M63.2406 0H66.1644L66.5327 0.811213L74.0683 18.2312L81.5292 0.811213L81.9069 0H84.8353L84.0286 1.87564L75.3133 22.1888L74.9449 23H73.2103L72.8372 22.1888L64.0473 1.87564L63.2406 0Z" fill="white"/>
<path d="M89.0647 0H91.76V20.2944H102.522V23H89.0647V0Z" fill="white"/>
<path d="M114.6 21.6495V23H111.914V11.9384L105.661 2.09134L104.341 0H107.54L107.941 0.609582L113.257 8.96555L118.442 0.642406L118.838 0H122L120.722 2.0632L114.6 11.8728V21.6495Z" fill="white"/>
</g>
<defs>
<clipPath id="clip0_38_800">
<rect width="122" height="23" fill="white"/>
</clipPath>
</defs>
</svg>
