<svg width="127" height="28" viewBox="0 0 127 28" fill="none" xmlns="http://www.w3.org/2000/svg">
<g clip-path="url(#clip0_276_4120)" filter="url(#filter0_d_276_4120)">
<path d="M15.9141 6.70826C15.9141 5.88624 15.6112 5.14251 15.0054 4.48685C13.9603 3.38104 12.5416 2.82813 10.7443 2.82813C9.69925 2.82813 8.71477 3.063 7.79591 3.53272C6.31666 4.28624 5.57451 5.34312 5.57451 6.70826C5.57451 6.94312 5.6351 7.19266 5.75626 7.44709C6.17025 8.22508 7.53843 9.0471 9.8709 9.91804C12.7587 11.0239 14.4955 11.7089 15.0811 11.9633C18.0194 13.3969 19.4886 15.1731 19.4886 17.2917C19.4633 18.7988 18.807 20.1884 17.5196 21.4557C15.7475 23.1486 13.4908 23.9951 10.7443 23.9951C8.36641 23.9951 6.31161 23.3492 4.59003 22.0526C2.8634 20.7119 2.00513 19.1217 2.00513 17.2869H4.91314C4.93839 18.1089 5.30189 18.8624 6.00365 19.5474C7.19513 20.6287 8.7703 21.1719 10.7393 21.1719C11.9762 21.1719 13.1323 20.9125 14.1976 20.3939C15.7778 19.6159 16.5654 18.5835 16.5654 17.2869C16.5654 17.0275 16.4947 16.7682 16.3483 16.5089C15.9343 15.7113 14.551 14.8599 12.1983 13.9694C9.3307 12.8881 7.61921 12.2177 7.06386 11.9584C4.12555 10.5541 2.6564 8.80245 2.6564 6.70826C2.6564 5.17676 3.23699 3.79205 4.40323 2.54434C6.0087 0.846483 8.11903 0 10.7393 0C12.8294 0 14.6469 0.587156 16.2019 1.76636C17.9487 3.10703 18.8221 4.75596 18.8221 6.70826H15.9091H15.9141Z" fill="white"/>
<path d="M24.0424 24H20.8718L21.7452 22.0232L31.2165 0.846483L31.6153 0H33.5086L33.9074 0.846483L43.3787 22.0232L44.2521 24H41.0815L40.6827 23.1535L32.5645 4.97615L24.4412 23.1535L24.0424 24Z" fill="white"/>
<path d="M41.127 0H44.2975L44.6963 0.846483L52.8549 19.0239L60.9378 0.846483L61.3367 0H64.5072L63.6338 1.97676L54.2029 23.1535L53.8041 24H51.9108L51.512 23.1535L42.0004 1.97676L41.127 0Z" fill="white"/>
<path d="M65.421 0H68.5916L68.9904 0.846483L77.149 19.0239L85.2319 0.846483L85.6307 0H88.8013L87.9279 1.97676L78.497 23.1535L78.0982 24H76.2049L75.8061 23.1535L66.2944 1.97676L65.421 0Z" fill="white"/>
<path d="M91.366 0H94.279V21.1768H105.931V24H91.366V0Z" fill="white"/>
<path d="M116.988 22.5908V24.0049H114.075V12.4575L107.299 2.18716L105.881 0H109.339L109.778 0.636086L115.534 9.35535L121.143 0.670336L121.582 0H125.005L123.622 2.15291L116.993 12.389V22.5908H116.988Z" fill="white"/>
</g>
<defs>
<filter id="filter0_d_276_4120" x="0" y="0" width="127" height="28" filterUnits="userSpaceOnUse" color-interpolation-filters="sRGB">
<feFlood flood-opacity="0" result="BackgroundImageFix"/>
<feColorMatrix in="SourceAlpha" type="matrix" values="0 0 0 0 0 0 0 0 0 0 0 0 0 0 0 0 0 0 127 0" result="hardAlpha"/>
<feOffset dy="2"/>
<feGaussianBlur stdDeviation="1"/>
<feComposite in2="hardAlpha" operator="out"/>
<feColorMatrix type="matrix" values="0 0 0 0 0 0 0 0 0 0 0 0 0 0 0 0 0 0 0.25 0"/>
<feBlend mode="normal" in2="BackgroundImageFix" result="effect1_dropShadow_276_4120"/>
<feBlend mode="normal" in="SourceGraphic" in2="effect1_dropShadow_276_4120" result="shape"/>
</filter>
<clipPath id="clip0_276_4120">
<rect width="123" height="24" fill="white" transform="translate(2)"/>
</clipPath>
</defs>
</svg>
