<svg width="84" height="84" viewBox="0 0 84 84" fill="none" xmlns="http://www.w3.org/2000/svg">
<g clip-path="url(#clip0_271_3821)">
<path d="M67.3739 53.0332L71.4213 55.3546C70.9997 55.8747 64.0073 73.9921 44.4609 73.9921H42.3757C40.6448 77.9346 37.8804 81.457 34.4662 84H44.4626C59.873 84 73.7018 74.5959 79.9887 60.2683L84.0016 62.4766L81.9459 45.9539L67.3755 53.0348L67.3739 53.0332Z" fill="#F2E177"/>
<path d="M16.462 30.9668L12.4146 28.6453C12.8362 28.1252 19.9927 10.0078 39.5391 10.0078H41.6243C43.3552 6.06539 46.1196 2.54297 49.5338 0H39.5374C24.1287 0 10.1358 9.40406 3.84891 23.7316L0 21.5234L1.89164 38.0461L16.462 30.9652V30.9668Z" fill="#F2E177"/>
<path d="M27.2344 82.3725V81.375C27.2344 77.3046 23.922 73.9922 19.8516 73.9922C15.7812 73.9922 12.4688 77.3046 12.4688 81.375V82.3725C14.7525 83.3011 17.238 84 19.8516 84C22.4651 84 24.9506 83.2995 27.2344 82.3725Z" fill="#F2E177"/>
<path d="M19.8516 64.1484C21.2107 64.1484 22.3125 63.0466 22.3125 61.6875C22.3125 60.3284 21.2107 59.2266 19.8516 59.2266C18.4924 59.2266 17.3906 60.3284 17.3906 61.6875C17.3906 63.0466 18.4924 64.1484 19.8516 64.1484Z" fill="#F2E177"/>
<path d="M7.73227 79.5457C8.62477 73.6329 13.6927 69.0703 19.8516 69.0703C15.7812 69.0703 12.4688 65.7579 12.4688 61.6875C12.4688 57.6171 15.7812 54.3047 19.8516 54.3047C23.922 54.3047 27.2344 57.6171 27.2344 61.6875C27.2344 65.7579 23.922 69.0703 19.8516 69.0703C26.0121 69.0703 31.08 73.6329 31.9709 79.5457C36.5433 75.938 39.5391 70.4123 39.5391 64.1484C39.5391 53.2924 30.7092 44.4609 19.8516 44.4609C8.99391 44.4609 0 53.2924 0 64.1484C0 70.4123 3.1582 75.9363 7.73227 79.5457Z" fill="#F2E177"/>
<path d="M71.5312 38.0756V37.0797C71.5312 33.0093 68.2188 29.6969 64.1484 29.6969C60.078 29.6969 56.7656 33.0093 56.7656 37.0797V38.0756C59.0494 39.0042 61.5349 39.5406 64.1484 39.5406C66.762 39.5406 69.2475 39.0058 71.5312 38.0756Z" fill="#F2E177"/>
<path d="M64.1484 19.8516C65.5076 19.8516 66.6094 18.7498 66.6094 17.3906C66.6094 16.0315 65.5076 14.9297 64.1484 14.9297C62.7893 14.9297 61.6875 16.0315 61.6875 17.3906C61.6875 18.7498 62.7893 19.8516 64.1484 19.8516Z" fill="#F2E177"/>
<path d="M64.1484 0C53.2908 0 44.4609 8.99555 44.4609 19.8516C44.4609 26.1155 47.4551 31.6395 52.0291 35.2488C52.9216 29.336 57.9895 24.7734 64.1484 24.7734C60.078 24.7734 56.7656 21.461 56.7656 17.3906C56.7656 13.3202 60.078 10.0078 64.1484 10.0078C68.2188 10.0078 71.5312 13.3202 71.5312 17.3906C71.5312 21.461 68.2188 24.7734 64.1484 24.7734C70.309 24.7734 75.3769 29.336 76.2677 35.2488C80.8402 31.6411 83.8359 26.1155 83.8359 19.8516C83.8359 8.99555 75.0061 0 64.1484 0Z" fill="#F2E177"/>
</g>
<defs>
<clipPath id="clip0_271_3821">
<rect width="84" height="84" fill="white"/>
</clipPath>
</defs>
</svg>
