<svg width="23" height="24" viewBox="0 0 23 24" fill="none" xmlns="http://www.w3.org/2000/svg">
<path d="M17.1614 5.46379L17.8409 4.58186C18.7722 3.37638 18.5834 1.61513 17.4181 0.649703L17.3753 0.613173C16.2125 -0.352254 14.5136 -0.156559 13.5823 1.05153L12.9053 1.93085L17.1614 5.46379Z" fill="white"/>
<path d="M13.0259 12.8767C13.0485 13.0907 13.1517 13.2942 13.3254 13.4403C13.6752 13.73 14.1861 13.6726 14.4655 13.3099L19.1344 7.25638C19.4188 6.88847 19.3559 6.34836 18.9909 6.06134C18.6386 5.78475 18.1327 5.86303 17.8558 6.2205L17.4002 6.81019L16.62 6.1631L16.6225 6.16049L12.3689 2.62494L1.48584 16.728L5.74193 20.2609L15.6107 7.47556L16.391 8.12265L13.1995 12.2583C13.0586 12.4384 13.0032 12.6628 13.0259 12.8767Z" fill="white"/>
<path d="M5.03482 20.9132L1.02538 17.5838C0.959945 17.816 0.927226 18.0195 0.927226 18.0195L0.00855466 22.5805C-0.0568849 22.9093 0.265279 23.1781 0.559757 23.0372L4.65225 21.1063C4.64973 21.1063 4.83095 21.028 5.03482 20.9132Z" fill="white"/>
<path d="M22.4166 21.73C22.3814 21.73 22.3486 21.7326 22.3134 21.7378L16.1294 22.5675C15.8122 22.6093 15.5908 22.2492 15.7619 21.9674C15.855 21.8187 15.9456 21.6673 16.0362 21.516C16.2754 21.1142 15.9557 20.5793 15.5127 20.5793C15.4825 20.5793 15.4523 20.5819 15.4196 20.5871L7.31516 21.85L6.34615 22.0013L3.7034 22.4136C3.40389 22.4606 3.20254 22.7241 3.22771 23.0398C3.23777 23.1807 3.29315 23.3138 3.38124 23.4129C3.48443 23.5304 3.62789 23.5956 3.78394 23.5956C3.81414 23.5956 3.84435 23.593 3.87707 23.5878L13.537 22.0822C13.8667 22.03 14.0932 22.4162 13.8994 22.698C13.8365 22.7867 13.7735 22.878 13.7106 22.9668C13.537 23.212 13.5772 23.6217 13.7786 23.833C13.8818 23.9426 14.0127 24 14.1511 24C14.1662 24 14.1838 24 14.1989 23.9974H14.2039L22.5424 22.8963H22.5475C22.6909 22.8728 22.8168 22.7867 22.8998 22.6536C22.9905 22.5075 23.0232 22.3275 22.9829 22.1657C22.9175 21.9022 22.696 21.73 22.4166 21.73Z" fill="white"/>
</svg>
