<svg width="95" height="94" viewBox="0 0 95 94" fill="none" xmlns="http://www.w3.org/2000/svg">
<path d="M87.5299 47.72C87.0029 47.1599 86.1216 47.1339 85.5631 47.6607C85.0027 48.1874 84.9768 49.0683 85.5037 49.6266C89.8325 54.2206 92.2168 60.226 92.2168 66.5412C92.2168 80.147 81.1434 91.2156 67.5316 91.2156C53.9199 91.2156 42.8483 80.147 42.8483 66.5412C42.8483 52.9353 53.9218 41.8685 67.5316 41.8685C72.5563 41.8685 77.3916 43.369 81.5126 46.2066C82.1453 46.6424 83.0118 46.4829 83.4479 45.8505C83.8839 45.2181 83.7243 44.3519 83.0916 43.9161C78.5049 40.7576 73.124 39.0884 67.5335 39.0884C65.268 39.0884 63.0674 39.3666 60.9596 39.8859C59.9391 38.8195 58.5271 38.2056 57.0167 38.2056H56.4693C56.9165 37.4136 57.1744 36.5011 57.1744 35.5293V30.4104C57.1744 27.4003 54.7252 24.9521 51.7138 24.9521H45.7948L34.7455 5.82682C33.4467 3.58082 31.1218 2.23804 28.5278 2.23804C25.9339 2.23804 23.6108 3.57896 22.3139 5.82496L11.2664 24.9484H7.7002C4.68877 24.9484 2.23955 27.3966 2.23955 30.4067V35.5256C2.23955 38.5357 4.68877 40.9839 7.7002 40.9839H8.2457C7.79853 41.7758 7.54248 42.6883 7.54248 43.6601V48.779C7.54248 49.7509 7.79853 50.6634 8.2457 51.4553H5.46064C2.44922 51.4553 0 53.9035 0 56.9117V62.0306C0 64.7013 1.92969 66.9288 4.46797 67.3962C3.9874 68.2085 3.71094 69.1544 3.71094 70.1652V75.284C3.71094 76.382 4.0375 77.4058 4.59971 78.2626C2.46406 79.0045 0.927734 81.0354 0.927734 83.4186V88.5375C0.927734 91.5476 3.37695 93.9958 6.38838 93.9958H50.402C52.4689 93.9958 54.3059 92.8255 55.2299 91.0839C58.9334 92.946 63.1119 93.9976 67.5316 93.9976C82.6778 93.9976 95 81.6808 95 66.5412C95 59.5157 92.3467 52.8315 87.5299 47.72ZM6.49414 75.2859V70.167C6.49414 68.6907 7.69463 67.4907 9.17158 67.4907H40.0837C40.2099 71.2149 41.0838 74.7536 42.557 77.9622H9.17158C7.69463 77.9622 6.49414 76.7622 6.49414 75.2859ZM57.4175 41.0172C52.1498 43.1093 47.68 46.7871 44.5943 51.4572H38.013V40.9857H57.0148C57.1503 40.9857 57.2857 40.9968 57.4175 41.0172ZM54.3894 30.4086V35.5274C54.3894 37.0037 53.1889 38.2037 51.7119 38.2037H38.013V36.9518H40.2896C42.8854 36.9518 45.2085 35.6109 46.5073 33.363C47.5186 31.6122 47.7375 29.5999 47.1734 27.7323H51.7119C53.1889 27.7323 54.3894 28.9322 54.3894 30.4086ZM5.0209 35.5274V30.4086C5.0209 28.9322 6.22139 27.7323 7.69834 27.7323H9.88223C9.5334 28.897 9.4833 30.1341 9.7542 31.3322C9.92305 32.0815 10.6671 32.5525 11.4186 32.3838C12.1682 32.215 12.6395 31.4694 12.4706 30.722C12.3018 29.9709 12.2498 28.8154 12.9623 27.5802L24.7241 7.21967C25.5183 5.84536 26.9396 5.0256 28.5278 5.02375C30.118 5.02375 31.5411 5.84536 32.3371 7.22152L44.0971 27.5802C44.8912 28.9545 44.8912 30.5977 44.0971 31.9739C43.3029 33.3501 41.8798 34.1717 40.2896 34.1717H36.6214C35.8532 34.1717 35.2298 34.7948 35.2298 35.5627V57.0193C35.2298 58.2601 34.2204 59.269 32.9791 59.269H24.0803C22.839 59.269 21.8296 58.2601 21.8296 57.0193V35.5627C21.8296 34.7948 21.2062 34.1717 20.438 34.1717H16.7679C16.2391 34.1717 15.7288 34.0845 15.252 33.9102C14.5302 33.6468 13.7305 34.0196 13.4688 34.7429C13.2054 35.4644 13.5783 36.2637 14.302 36.5252C15.085 36.809 15.9144 36.9537 16.7679 36.9537H19.0464V38.2056H7.69834C6.22139 38.2056 5.0209 37.0056 5.0209 35.5293V35.5274ZM10.3238 48.7809V43.662C10.3238 42.1857 11.5243 40.9857 13.0013 40.9857H19.0464V51.4572H13.0013C11.5243 51.4572 10.3238 50.2572 10.3238 48.7809ZM2.7832 62.0325V56.9136C2.7832 55.4391 3.98369 54.2392 5.46064 54.2392H19.0464V57.0174C19.0464 59.792 21.3045 62.0491 24.0803 62.0491H32.9791C35.7549 62.0491 38.013 59.792 38.013 57.0174V54.2392H42.9819C41.377 57.4255 40.375 60.966 40.1282 64.7087H5.46064C3.98369 64.7087 2.7832 63.5088 2.7832 62.0325ZM50.402 91.2156H6.38838C4.91143 91.2156 3.71094 90.0157 3.71094 88.5393V83.4205C3.71094 81.9442 4.91143 80.7442 6.38838 80.7442H44.0321C46.229 84.3626 49.2386 87.4358 52.8066 89.7096C52.3688 90.6054 51.4466 91.2156 50.402 91.2156Z" fill="#F2E177"/>
<path d="M70.2796 65.0983C69.7879 64.9555 69.2832 64.8052 68.7804 64.6476V58.4845C70.274 58.7052 71.1665 59.334 71.2352 59.384C71.8475 59.8403 72.714 59.7197 73.176 59.1114C73.6417 58.4994 73.5211 57.6277 72.9088 57.1622C72.8197 57.0935 71.2815 55.9548 68.7804 55.6858V54.484C68.7804 53.7162 68.1569 53.093 67.3888 53.093C66.6206 53.093 65.9972 53.7162 65.9972 54.484V55.7749C65.7281 55.8194 65.4554 55.8769 65.1733 55.9455C62.828 56.5279 61.0765 58.3158 60.7109 60.5043C60.4029 62.3497 61.1563 64.1042 62.6759 65.0853C63.5127 65.625 64.5573 66.1202 65.9953 66.6451V74.4532C64.5499 74.392 63.5962 74.149 62.0246 73.3033C61.3474 72.9398 60.5031 73.192 60.1395 73.869C59.7758 74.5459 60.0281 75.3898 60.7054 75.7533C62.7835 76.8717 64.1287 77.1721 65.9972 77.2389V78.6039C65.9972 79.3718 66.6206 79.9949 67.3888 79.9949C68.1569 79.9949 68.7804 79.3718 68.7804 78.6039V77.148C72.4468 76.6009 74.6808 73.9988 75.0389 71.4338C75.4434 68.5461 73.5749 66.0608 70.2796 65.102V65.0983ZM64.1862 62.7484C63.3476 62.2068 63.3958 61.3185 63.457 60.9605C63.6018 60.0907 64.305 59.0261 65.8432 58.6459C65.8951 58.6329 65.9452 58.6218 65.9953 58.6106V63.6609C65.3051 63.3734 64.6835 63.0711 64.1844 62.7484H64.1862ZM72.2816 71.0462C72.0868 72.4446 70.8455 73.8579 68.7785 74.316V67.5576C69.0123 67.628 69.2517 67.6985 69.5003 67.7708C71.4782 68.3458 72.4913 69.5402 72.2816 71.0462Z" fill="#F2E177"/>
<path d="M67.5316 47.5513C57.0556 47.5513 48.5316 56.0697 48.5316 66.543C48.5316 77.0163 57.0538 85.5348 67.5316 85.5348C78.0094 85.5348 86.5316 77.0163 86.5316 66.543C86.5316 56.0697 78.0094 47.5513 67.5316 47.5513ZM67.5316 82.751C58.5901 82.751 51.3148 75.4788 51.3148 66.5412C51.3148 57.6036 58.5901 50.3314 67.5316 50.3314C76.4731 50.3314 83.7484 57.6036 83.7484 66.5412C83.7484 75.4788 76.4731 82.751 67.5316 82.751Z" fill="#F2E177"/>
<path d="M67.8174 30.0619L67.9232 30.4588C68.4149 32.2968 70.0941 33.5339 71.9365 33.5339C72.1982 33.5339 72.4635 33.5098 72.7288 33.456L77.1077 32.5991C78.2321 32.3784 79.2248 31.6959 79.8316 30.7241C80.4383 29.7522 80.6164 28.5615 80.3195 27.4543L80.0561 26.4676C79.7592 25.3622 79.0096 24.4182 77.9983 23.8803C76.9871 23.3425 75.7848 23.246 74.7012 23.617L70.4818 25.0636C68.426 25.7684 67.257 27.9643 67.8193 30.0619H67.8174ZM71.3836 27.6954L75.6029 26.2487C75.9648 26.1245 76.3507 26.156 76.6884 26.3359C77.0261 26.5158 77.2673 26.8181 77.3656 27.1891L77.6291 28.1757C77.7275 28.5448 77.6718 28.9269 77.4677 29.2533C77.2636 29.5797 76.9463 29.7967 76.5715 29.8709L72.1926 30.7278C71.4875 30.865 70.7954 30.431 70.6099 29.7411L70.5041 29.3442C70.3186 28.6524 70.7045 27.9291 71.3817 27.6972L71.3836 27.6954Z" fill="#F2E177"/>
<path d="M61.5441 19.1989C62.3493 20.0038 63.4125 20.41 64.4813 20.41C65.4517 20.41 66.4258 20.0725 67.2069 19.3937L70.5691 16.4633C71.4318 15.7103 71.9514 14.6235 71.9903 13.4773C72.0293 12.3311 71.5877 11.2109 70.7769 10.4022L70.0551 9.67892C69.2443 8.86843 68.1236 8.42516 66.9787 8.46597C65.8339 8.50492 64.7447 9.02237 63.9914 9.88664L61.0598 13.2473C59.6329 14.885 59.7183 17.3702 61.2546 18.9059L61.5459 19.1971L61.5441 19.1989ZM63.1583 15.0779L66.09 11.7172C66.3423 11.4279 66.6911 11.2628 67.0734 11.2498C67.0901 11.2498 67.1049 11.2498 67.1216 11.2498C67.4853 11.2498 67.8267 11.3908 68.0864 11.6504L68.8082 12.3719C69.0791 12.6427 69.2201 13.0025 69.2071 13.3845C69.1942 13.7666 69.0272 14.1171 68.7396 14.3675L65.3756 17.2979C64.8357 17.7671 64.0174 17.7393 63.5109 17.233L63.2195 16.9418C62.713 16.4355 62.6852 15.6176 63.1546 15.0779H63.1583Z" fill="#F2E177"/>
<path d="M49.9882 12.5297L50.3853 12.6354C50.7415 12.73 51.0996 12.7764 51.4522 12.7764C53.1852 12.7764 54.7994 11.6803 55.3858 9.97398L56.833 5.75647C57.2041 4.67335 57.1095 3.47153 56.5695 2.46073C56.0315 1.44994 55.087 0.700657 53.9812 0.403911L52.9941 0.140548C51.8863 -0.156198 50.6951 0.0218498 49.7229 0.628325C48.7506 1.2348 48.0678 2.22705 47.847 3.35097L46.9898 7.72798C46.5723 9.85899 47.8897 11.9696 49.9882 12.5316V12.5297ZM49.721 8.26027L50.5782 3.88512C50.6525 3.51048 50.8714 3.19147 51.1961 2.98746C51.4169 2.85021 51.6637 2.77974 51.916 2.77974C52.0348 2.77974 52.1554 2.79457 52.2741 2.82796L53.2612 3.09132C53.6305 3.18962 53.9348 3.43072 54.1148 3.76827C54.2947 4.10582 54.3263 4.49159 54.202 4.85325L52.7547 9.07076C52.5228 9.74771 51.7991 10.1316 51.107 9.94802L50.71 9.8423C50.0179 9.65684 49.5837 8.96134 49.7229 8.26027H49.721Z" fill="#F2E177"/>
</svg>
