<svg width="30" height="32" viewBox="0 0 30 32" fill="none" xmlns="http://www.w3.org/2000/svg">
<path d="M29.4806 18.8973L26.649 16.6692C26.6851 16.3259 26.7158 15.9238 26.7158 15.4988C26.7158 15.0737 26.6863 14.6723 26.649 14.3284L29.483 12.0991C30.0095 11.6807 30.1533 10.9378 29.8182 10.319L26.8734 5.1925C26.5587 4.61367 25.8698 4.31699 25.17 4.57613L21.8287 5.92572C21.1885 5.46072 20.517 5.06777 19.8226 4.75414L19.3142 1.18793C19.2305 0.511011 18.6457 -0.000610352 17.9537 -0.000610352H12.0491C11.3572 -0.000610352 10.7729 0.511011 10.6911 1.17763L10.1814 4.75656C9.50872 5.06171 8.84804 5.44861 8.17894 5.92814L4.82863 4.57431C4.20105 4.33031 3.45011 4.60398 3.13783 5.18039L0.188851 10.3142C-0.158937 10.9057 -0.0151285 11.674 0.522799 12.1033L3.35444 14.3314C3.30931 14.7668 3.28765 15.1452 3.28765 15.5006C3.28765 15.856 3.30931 16.2344 3.35444 16.671L0.520392 18.9003C-0.00610293 19.3199 -0.148106 20.0628 0.186444 20.6804L3.13121 25.8069C3.4459 26.3845 4.12884 26.6836 4.83464 26.4233L8.17593 25.0737C8.81495 25.5375 9.48645 25.9298 10.1808 26.2453L10.6893 29.8103C10.7729 30.4896 11.3566 31.0012 12.0497 31.0012H17.9543C18.6463 31.0012 19.2317 30.4896 19.3136 29.823L19.8232 26.2453C20.4959 25.9389 21.1554 25.5532 21.8257 25.0725L25.176 26.4263C25.3379 26.4899 25.5057 26.522 25.679 26.522C26.1773 26.522 26.6352 26.2483 26.8662 25.822L29.8236 20.6683C30.1521 20.064 30.0083 19.3211 29.4794 18.8985L29.4806 18.8973ZM15.0011 20.6671C12.1695 20.6671 9.86673 18.3499 9.86673 15.5006C9.86673 12.6513 12.1695 10.3341 15.0011 10.3341C17.8328 10.3341 20.1355 12.6513 20.1355 15.5006C20.1355 18.3499 17.8328 20.6671 15.0011 20.6671Z" fill="white"/>
</svg>
