<svg width="10" height="15" viewBox="0 0 10 15" fill="none" xmlns="http://www.w3.org/2000/svg">
<path d="M1.08533 0.000252474C0.523498 -0.0121479 0.0575308 0.433788 0.0456074 0.99562C0.0389303 1.30706 0.175334 1.60467 0.415711 1.80307L6.64165 7.13666L0.415234 12.4683C-0.0378565 12.8012 -0.135152 13.438 0.19775 13.891C0.530652 14.3441 1.16736 14.4414 1.62045 14.1085C1.66195 14.078 1.70058 14.0446 1.73683 14.0084L8.86513 7.90977C9.29246 7.54492 9.34349 6.90296 8.97864 6.47515C8.94382 6.43461 8.90614 6.39645 8.86513 6.36164L1.73683 0.256845C1.55702 0.0970707 1.32571 0.00597572 1.08533 0.000252474Z" fill="white"/>
</svg>
