<svg width="18" height="18" viewBox="0 0 18 18" fill="none" xmlns="http://www.w3.org/2000/svg">
<path d="M0.000518799 6.8948V10.1452C0.000518799 10.3898 0.198727 10.5885 0.443802 10.5885H6.45203V16.5967C6.45203 16.8418 6.65073 17.04 6.89532 17.04H10.1457C10.3903 17.04 10.589 16.8418 10.589 16.5967V10.5885H16.5968C16.8418 10.5885 17.04 10.3898 17.04 10.1452V6.8948C17.04 6.65021 16.8418 6.45152 16.5968 6.45152H10.5885V0.443282C10.5885 0.198208 10.3898 0 10.1452 0H6.89483C6.65024 0 6.45155 0.198208 6.45155 0.443282V6.45152H0.443314C0.198238 6.45152 3.05176e-05 6.65021 3.05176e-05 6.8948H0.000518799Z" fill="white"/>
</svg>
