<svg version="1.2" xmlns="http://www.w3.org/2000/svg" viewBox="0 0 42 50" width="42" height="50">
	<title>IconLumpSum-svg</title>
	<style>
		.s0 { fill: #ffffff } 
	</style>
	<path id="Layer" fill-rule="evenodd" class="s0" d="m17 49.8c-30.6-2.2-13-32.6-0.6-38.7-4.1-2.6-6.8-8.8-5.3-10.5 2-2 5.4 1.7 8.5 1.3 2.2-0.3 6.8-2.1 8.9-1.7 1.6 0.3-1 7.5-4.8 10.7 14.5 5.9 35.7 42-6.7 38.9zm0.8-20.8c0-0.9 0.7-1.6 1.6-1.6h3.2c0.9 0 1.6 0.7 1.6 1.6h3.2c0-2.7-2.1-4.8-4.8-4.8v-3.2h-3.2v3.2c-2.7 0-4.8 2.1-4.8 4.8 0 2.6 2.1 4.7 4.8 4.7h3.2c0.9 0 1.6 0.7 1.6 1.6 0 0.9-0.7 1.6-1.6 1.6h-3.2c-0.9 0-1.6-0.7-1.6-1.6h-3.2c0 2.6 2.1 4.8 4.8 4.8v3.2h3.2v-3.2c2.7 0 4.8-2.2 4.8-4.8 0-2.6-2.1-4.8-4.8-4.8h-3.2c-0.9 0-1.6-0.7-1.6-1.5z"/>
</svg>